<svg width="36" height="78" viewBox="0 0 36 78" fill="none" xmlns="http://www.w3.org/2000/svg">
<path fill-rule="evenodd" clip-rule="evenodd" d="M35.0375 0.513172C30.0265 0.365442 25.3099 1.46036 20.8877 3.79794C17.9538 5.83635 15.9043 8.5595 14.7393 11.9677C13.4813 16.1574 12.3022 20.3687 11.2019 24.6015C10.1346 27.805 8.50635 30.6687 6.31684 33.1924C4.25889 35.1326 2.15327 37.0137 -2.28882e-05 38.8355C1.91289 40.8139 3.90615 42.695 5.97994 44.4785C7.97691 46.7615 9.49296 49.3445 10.5281 52.2272C11.9885 57.0588 13.4485 61.8878 14.9078 66.7139C17.0435 72.6681 21.2267 76.1775 27.4573 77.242C29.5802 77.5804 31.7138 77.8331 33.8584 78C35.1536 77.9383 35.687 77.2645 35.4586 75.9786C33.1672 72.3096 31.4266 68.3792 30.2367 64.1871C29.0021 59.0794 27.43 54.082 25.5201 49.1951C23.2598 44.6047 19.8066 41.2357 15.1604 39.0881C17.0147 38.1617 18.7553 37.0667 20.3824 35.8034C23.9621 32.353 26.3765 28.1979 27.6257 23.3381C28.9142 18.493 30.346 13.6922 31.9212 8.93565C32.927 6.69898 34.1061 4.56523 35.4586 2.53457C35.6459 1.77974 35.5056 1.10595 35.0375 0.513172Z" fill="white"/>
</svg>
